<?xml version="1.0" encoding="UTF-8" standalone="no"?>
<!-- Created with Inkscape (http://www.inkscape.org/) -->

<svg
   xmlns:dc="http://purl.org/dc/elements/1.1/"
   xmlns:cc="http://creativecommons.org/ns#"
   xmlns:rdf="http://www.w3.org/1999/02/22-rdf-syntax-ns#"
   xmlns:svg="http://www.w3.org/2000/svg"
   xmlns="http://www.w3.org/2000/svg"
   xmlns:sodipodi="http://sodipodi.sourceforge.net/DTD/sodipodi-0.dtd"
   xmlns:inkscape="http://www.inkscape.org/namespaces/inkscape"
   width="210mm"
   height="297mm"
   viewBox="0 0 744.09448819 1052.3622047"
   id="svg2"
   version="1.1"
   inkscape:version="0.91 r13725"
   sodipodi:docname="star.svg">
  <defs
     id="defs4" />
  <sodipodi:namedview
     id="base"
     pagecolor="#ffffff"
     bordercolor="#666666"
     borderopacity="1.0"
     inkscape:pageopacity="0.0"
     inkscape:pageshadow="2"
     inkscape:zoom="0.35"
     inkscape:cx="-39.285714"
     inkscape:cy="177.14286"
     inkscape:document-units="px"
     inkscape:current-layer="layer1"
     showgrid="false"
     showguides="true"
     inkscape:window-width="1415"
     inkscape:window-height="855"
     inkscape:window-x="525"
     inkscape:window-y="444"
     inkscape:window-maximized="0" />
  <metadata
     id="metadata7">
    <rdf:RDF>
      <cc:Work
         rdf:about="">
        <dc:format>image/svg+xml</dc:format>
        <dc:type
           rdf:resource="http://purl.org/dc/dcmitype/StillImage" />
        <dc:title></dc:title>
      </cc:Work>
    </rdf:RDF>
  </metadata>
  <g
     inkscape:label="Layer 1"
     inkscape:groupmode="layer"
     id="layer1">
    <path
       style="fill:#ff0000;fill-rule:evenodd;stroke:#000000;stroke-width:1px;stroke-linecap:butt;stroke-linejoin:miter;stroke-opacity:1"
       id="path4152"
       sodipodi:type="arc"
       sodipodi:cx="335.71429"
       sodipodi:cy="415.21936"
       sodipodi:rx="1.4285715"
       sodipodi:ry="2.8571429"
       sodipodi:start="0"
       sodipodi:end="5.1696455"
       d="m 337.14287,415.21936 a 1.4285715,2.8571429 0 0 1 -1.036,2.74714 1.4285715,2.8571429 0 0 1 -1.60538,-1.23729 1.4285715,2.8571429 0 0 1 0.15366,-3.42717 1.4285715,2.8571429 0 0 1 1.68984,-0.6463 l -0.6307,2.56362 z" />
    <path
       style="fill:#ffff00;fill-rule:evenodd;stroke:#000000;stroke-width:1px;stroke-linecap:butt;stroke-linejoin:miter;stroke-opacity:1"
       d="m 1151.4286,423.79078 11.4285,2.85714"
       id="path4161"
       inkscape:connector-curvature="0" />
    <path
       style="fill:#000000;fill-rule:evenodd;stroke:#000000;stroke-width:1px;stroke-linecap:butt;stroke-linejoin:miter;stroke-opacity:1;fill-opacity:0"
       d="m 377.14286,529.50506 8.57143,5.71429"
       id="path4163"
       inkscape:connector-curvature="0" />
    <path
       style="fill:#ffff00;fill-opacity:0"
       d="m 174.12607,599.07649 c 0.79845,-1.96429 11.99172,-28 24.87393,-57.85714 12.88221,-29.85715 24.03024,-55.77498 24.77341,-57.59519 0.74316,-1.82021 -30.56255,-28.00546 -69.56825,-58.18943 C 115.19947,395.25075 82,369.33188 80.428571,367.83724 c -1.807889,-1.71954 23.636499,-1.96672 69.285719,-0.67308 48.39554,1.37146 72.14285,1.08668 72.14285,-0.86514 0,-1.60027 6.44012,-11.75499 14.31137,-22.56605 16.16374,-22.20069 94.92188,-117.93145 97.1172,-118.04626 0.78572,-0.0411 12.99454,28.33889 27.13072,63.06664 18.92851,46.50082 27.21131,63.68663 31.42857,65.21037 3.14954,1.13797 45.26554,8.95405 93.59111,17.36908 48.32558,8.41503 86.897,16.15348 85.71429,17.19656 -1.18271,1.04308 -37.50754,15.70874 -80.72183,32.59035 -43.21428,16.88161 -79.65008,31.70309 -80.96846,32.93662 -1.31837,1.23353 2.81032,18.24883 9.1748,37.81177 14.43626,44.37345 26.07938,88.83685 26.07938,99.59333 0,7.44183 -0.61926,7.95246 -6.79623,5.60397 -4.66692,-1.77434 -8.47137,-1.41697 -12.14286,1.14063 -4.82946,3.36426 -9.90674,-0.53394 -52.48949,-40.29994 -25.92857,-24.21346 -50.00169,-46.0348 -53.49582,-48.49183 -6.09003,-4.28243 -7.39086,-3.65163 -31.42858,15.24026 -38.34815,30.13883 -68.76506,52.18723 -90.6585,65.71591 -20.66126,12.76729 -26.034,14.75126 -23.57674,8.70606 z m 210.58822,-66.42857 c -1.95626,-2.35714 -4.84255,-4.28572 -6.41398,-4.28572 -1.5938,0 -1.2844,1.89503 0.69969,4.28572 1.95626,2.35714 4.84254,4.28571 6.41397,4.28571 1.5938,0 1.2844,-1.89503 -0.69968,-4.28571 z M 333.77503,486.49081 C 336.64876,483.89012 339,479.85958 339,477.53407 c 0,-2.67137 -2.18036,-1.45632 -5.92166,3.29997 -4.41683,5.61509 -8.50746,7.52816 -16.09709,7.52816 -12.4576,0 -32.35875,-5.63569 -37.47105,-10.61121 -2.07653,-2.02098 -7.43367,-3.6745 -11.90476,-3.6745 -4.47109,0 -8.77775,-1.60714 -9.57035,-3.57143 -0.86091,-2.13354 -1.53192,-1.55839 -1.66667,1.42857 -0.1658,3.67504 1.99171,5 8.14178,5 4.60205,0 10.06633,1.66746 12.14286,3.70546 10.27784,10.08713 48.15436,13.9673 57.12197,5.85172 z m 18.93926,-55.84289 c 4.73646,-4.73647 4.29616,-15.15171 -0.82004,-19.39778 -2.50804,-2.08148 -7.30422,-2.75912 -11.7071,-1.65407 -6.43593,1.61531 -7.19296,2.92994 -5.5217,9.58878 3.50007,13.94537 10.87966,18.63225 18.04884,11.46307 z m -75.99912,-6.68654 c 6.55652,-14.38998 -5.64772,-30.14294 -16.42385,-21.19955 -5.01699,4.16373 -5.4802,20.26864 -0.71989,25.02895 5.66536,5.66536 13.62804,3.88673 17.14374,-3.8294 z"
       id="path4165"
       inkscape:connector-curvature="0" />
    <path
       style="fill:#ffff00;fill-opacity:0"
       d="m 174.12607,599.07649 c 0.79845,-1.96429 11.99172,-28 24.87393,-57.85714 12.88221,-29.85715 24.03024,-55.77498 24.77341,-57.59519 0.74316,-1.82021 -30.56255,-28.00546 -69.56825,-58.18943 C 115.19947,395.25075 82,369.33188 80.428571,367.83724 c -1.807889,-1.71954 23.636499,-1.96672 69.285719,-0.67308 48.39554,1.37146 72.14285,1.08668 72.14285,-0.86514 0,-1.60027 6.44012,-11.75499 14.31137,-22.56605 16.16374,-22.20069 94.92188,-117.93145 97.1172,-118.04626 0.78572,-0.0411 12.99454,28.33889 27.13072,63.06664 18.92851,46.50082 27.21131,63.68663 31.42857,65.21037 3.14954,1.13797 45.26554,8.95405 93.59111,17.36908 48.32558,8.41503 86.897,16.15348 85.71429,17.19656 -1.18271,1.04308 -37.50754,15.70874 -80.72183,32.59035 -43.21428,16.88161 -79.65008,31.70309 -80.96846,32.93662 -1.31837,1.23353 2.81032,18.24883 9.1748,37.81177 14.43626,44.37345 26.07938,88.83685 26.07938,99.59333 0,7.44183 -0.61926,7.95246 -6.79623,5.60397 -4.66692,-1.77434 -8.47137,-1.41697 -12.14286,1.14063 -4.82946,3.36426 -9.90674,-0.53394 -52.48949,-40.29994 -25.92857,-24.21346 -50.00169,-46.0348 -53.49582,-48.49183 -6.09003,-4.28243 -7.39086,-3.65163 -31.42858,15.24026 -38.34815,30.13883 -68.76506,52.18723 -90.6585,65.71591 -20.66126,12.76729 -26.034,14.75126 -23.57674,8.70606 z m 210.58822,-66.42857 c -1.95626,-2.35714 -4.84255,-4.28572 -6.41398,-4.28572 -1.5938,0 -1.2844,1.89503 0.69969,4.28572 1.95626,2.35714 4.84254,4.28571 6.41397,4.28571 1.5938,0 1.2844,-1.89503 -0.69968,-4.28571 z M 333.77503,486.49081 C 336.64876,483.89012 339,479.85958 339,477.53407 c 0,-2.67137 -2.18036,-1.45632 -5.92166,3.29997 -4.41683,5.61509 -8.50746,7.52816 -16.09709,7.52816 -12.4576,0 -32.35875,-5.63569 -37.47105,-10.61121 -2.07653,-2.02098 -7.43367,-3.6745 -11.90476,-3.6745 -4.47109,0 -8.77775,-1.60714 -9.57035,-3.57143 -0.86091,-2.13354 -1.53192,-1.55839 -1.66667,1.42857 -0.1658,3.67504 1.99171,5 8.14178,5 4.60205,0 10.06633,1.66746 12.14286,3.70546 10.27784,10.08713 48.15436,13.9673 57.12197,5.85172 z m 18.93926,-55.84289 c 4.73646,-4.73647 4.29616,-15.15171 -0.82004,-19.39778 -2.50804,-2.08148 -7.30422,-2.75912 -11.7071,-1.65407 -6.43593,1.61531 -7.19296,2.92994 -5.5217,9.58878 3.50007,13.94537 10.87966,18.63225 18.04884,11.46307 z m -75.99912,-6.68654 c 6.55652,-14.38998 -5.64772,-30.14294 -16.42385,-21.19955 -5.01699,4.16373 -5.4802,20.26864 -0.71989,25.02895 5.66536,5.66536 13.62804,3.88673 17.14374,-3.8294 z"
       id="path4167"
       inkscape:connector-curvature="0" />
    <path
       style="fill:#ffff00;fill-opacity:0"
       d="m 174.12607,599.07649 c 0.79845,-1.96429 11.99172,-28 24.87393,-57.85714 12.88221,-29.85715 24.03024,-55.77498 24.77341,-57.59519 0.74316,-1.82021 -30.56255,-28.00546 -69.56825,-58.18943 C 115.19947,395.25075 82,369.33188 80.428571,367.83724 c -1.807889,-1.71954 23.636499,-1.96672 69.285719,-0.67308 48.39554,1.37146 72.14285,1.08668 72.14285,-0.86514 0,-1.60027 6.44012,-11.75499 14.31137,-22.56605 16.16374,-22.20069 94.92188,-117.93145 97.1172,-118.04626 0.78572,-0.0411 12.99454,28.33889 27.13072,63.06664 18.92851,46.50082 27.21131,63.68663 31.42857,65.21037 3.14954,1.13797 45.26554,8.95405 93.59111,17.36908 48.32558,8.41503 86.897,16.15348 85.71429,17.19656 -1.18271,1.04308 -37.50754,15.70874 -80.72183,32.59035 -43.21428,16.88161 -79.65008,31.70309 -80.96846,32.93662 -1.31837,1.23353 2.81032,18.24883 9.1748,37.81177 14.43626,44.37345 26.07938,88.83685 26.07938,99.59333 0,7.44183 -0.61926,7.95246 -6.79623,5.60397 -4.66692,-1.77434 -8.47137,-1.41697 -12.14286,1.14063 -4.82946,3.36426 -9.90674,-0.53394 -52.48949,-40.29994 -25.92857,-24.21346 -50.00169,-46.0348 -53.49582,-48.49183 -6.09003,-4.28243 -7.39086,-3.65163 -31.42858,15.24026 -38.34815,30.13883 -68.76506,52.18723 -90.6585,65.71591 -20.66126,12.76729 -26.034,14.75126 -23.57674,8.70606 z m 210.58822,-66.42857 c -1.95626,-2.35714 -4.84255,-4.28572 -6.41398,-4.28572 -1.5938,0 -1.2844,1.89503 0.69969,4.28572 1.95626,2.35714 4.84254,4.28571 6.41397,4.28571 1.5938,0 1.2844,-1.89503 -0.69968,-4.28571 z M 333.77503,486.49081 C 336.64876,483.89012 339,479.85958 339,477.53407 c 0,-2.67137 -2.18036,-1.45632 -5.92166,3.29997 -4.41683,5.61509 -8.50746,7.52816 -16.09709,7.52816 -12.4576,0 -32.35875,-5.63569 -37.47105,-10.61121 -2.07653,-2.02098 -7.43367,-3.6745 -11.90476,-3.6745 -4.47109,0 -8.77775,-1.60714 -9.57035,-3.57143 -0.86091,-2.13354 -1.53192,-1.55839 -1.66667,1.42857 -0.1658,3.67504 1.99171,5 8.14178,5 4.60205,0 10.06633,1.66746 12.14286,3.70546 10.27784,10.08713 48.15436,13.9673 57.12197,5.85172 z m 18.93926,-55.84289 c 4.73646,-4.73647 4.29616,-15.15171 -0.82004,-19.39778 -2.50804,-2.08148 -7.30422,-2.75912 -11.7071,-1.65407 -6.43593,1.61531 -7.19296,2.92994 -5.5217,9.58878 3.50007,13.94537 10.87966,18.63225 18.04884,11.46307 z m -75.99912,-6.68654 c 6.55652,-14.38998 -5.64772,-30.14294 -16.42385,-21.19955 -5.01699,4.16373 -5.4802,20.26864 -0.71989,25.02895 5.66536,5.66536 13.62804,3.88673 17.14374,-3.8294 z"
       id="path4169"
       inkscape:connector-curvature="0" />
    <path
       style="fill:#ffff00;fill-opacity:0"
       d="m 174.12607,599.07649 c 0.79845,-1.96429 11.99172,-28 24.87393,-57.85714 12.88221,-29.85715 24.03024,-55.77498 24.77341,-57.59519 0.74316,-1.82021 -30.56255,-28.00546 -69.56825,-58.18943 C 115.19947,395.25075 82,369.33188 80.428571,367.83724 c -1.807889,-1.71954 23.636499,-1.96672 69.285719,-0.67308 48.39554,1.37146 72.14285,1.08668 72.14285,-0.86514 0,-1.60027 6.44012,-11.75499 14.31137,-22.56605 16.16374,-22.20069 94.92188,-117.93145 97.1172,-118.04626 0.78572,-0.0411 12.99454,28.33889 27.13072,63.06664 18.92851,46.50082 27.21131,63.68663 31.42857,65.21037 3.14954,1.13797 45.26554,8.95405 93.59111,17.36908 48.32558,8.41503 86.897,16.15348 85.71429,17.19656 -1.18271,1.04308 -37.50754,15.70874 -80.72183,32.59035 -43.21428,16.88161 -79.65008,31.70309 -80.96846,32.93662 -1.31837,1.23353 2.81032,18.24883 9.1748,37.81177 14.43626,44.37345 26.07938,88.83685 26.07938,99.59333 0,7.44183 -0.61926,7.95246 -6.79623,5.60397 -4.66692,-1.77434 -8.47137,-1.41697 -12.14286,1.14063 -4.82946,3.36426 -9.90674,-0.53394 -52.48949,-40.29994 -25.92857,-24.21346 -50.00169,-46.0348 -53.49582,-48.49183 -6.09003,-4.28243 -7.39086,-3.65163 -31.42858,15.24026 -38.34815,30.13883 -68.76506,52.18723 -90.6585,65.71591 -20.66126,12.76729 -26.034,14.75126 -23.57674,8.70606 z m 210.58822,-66.42857 c -1.95626,-2.35714 -4.84255,-4.28572 -6.41398,-4.28572 -1.5938,0 -1.2844,1.89503 0.69969,4.28572 1.95626,2.35714 4.84254,4.28571 6.41397,4.28571 1.5938,0 1.2844,-1.89503 -0.69968,-4.28571 z M 333.77503,486.49081 C 336.64876,483.89012 339,479.85958 339,477.53407 c 0,-2.67137 -2.18036,-1.45632 -5.92166,3.29997 -4.41683,5.61509 -8.50746,7.52816 -16.09709,7.52816 -12.4576,0 -32.35875,-5.63569 -37.47105,-10.61121 -2.07653,-2.02098 -7.43367,-3.6745 -11.90476,-3.6745 -4.47109,0 -8.77775,-1.60714 -9.57035,-3.57143 -0.86091,-2.13354 -1.53192,-1.55839 -1.66667,1.42857 -0.1658,3.67504 1.99171,5 8.14178,5 4.60205,0 10.06633,1.66746 12.14286,3.70546 10.27784,10.08713 48.15436,13.9673 57.12197,5.85172 z m 18.93926,-55.84289 c 4.73646,-4.73647 4.29616,-15.15171 -0.82004,-19.39778 -2.50804,-2.08148 -7.30422,-2.75912 -11.7071,-1.65407 -6.43593,1.61531 -7.19296,2.92994 -5.5217,9.58878 3.50007,13.94537 10.87966,18.63225 18.04884,11.46307 z m -75.99912,-6.68654 c 6.55652,-14.38998 -5.64772,-30.14294 -16.42385,-21.19955 -5.01699,4.16373 -5.4802,20.26864 -0.71989,25.02895 5.66536,5.66536 13.62804,3.88673 17.14374,-3.8294 z"
       id="path4171"
       inkscape:connector-curvature="0" />
    <path
       style="fill:#ffff00;fill-opacity:0"
       d="m 174.12607,599.07649 c 0.79845,-1.96429 11.99172,-28 24.87393,-57.85714 12.88221,-29.85715 24.03024,-55.77498 24.77341,-57.59519 0.74316,-1.82021 -30.56255,-28.00546 -69.56825,-58.18943 C 115.19947,395.25075 82,369.33188 80.428571,367.83724 c -1.807889,-1.71954 23.636499,-1.96672 69.285719,-0.67308 48.39554,1.37146 72.14285,1.08668 72.14285,-0.86514 0,-1.60027 6.44012,-11.75499 14.31137,-22.56605 16.16374,-22.20069 94.92188,-117.93145 97.1172,-118.04626 0.78572,-0.0411 12.99454,28.33889 27.13072,63.06664 18.92851,46.50082 27.21131,63.68663 31.42857,65.21037 3.14954,1.13797 45.26554,8.95405 93.59111,17.36908 48.32558,8.41503 86.897,16.15348 85.71429,17.19656 -1.18271,1.04308 -37.50754,15.70874 -80.72183,32.59035 -43.21428,16.88161 -79.65008,31.70309 -80.96846,32.93662 -1.31837,1.23353 2.81032,18.24883 9.1748,37.81177 14.43626,44.37345 26.07938,88.83685 26.07938,99.59333 0,7.44183 -0.61926,7.95246 -6.79623,5.60397 -4.66692,-1.77434 -8.47137,-1.41697 -12.14286,1.14063 -4.82946,3.36426 -9.90674,-0.53394 -52.48949,-40.29994 -25.92857,-24.21346 -50.00169,-46.0348 -53.49582,-48.49183 -6.09003,-4.28243 -7.39086,-3.65163 -31.42858,15.24026 -38.34815,30.13883 -68.76506,52.18723 -90.6585,65.71591 -20.66126,12.76729 -26.034,14.75126 -23.57674,8.70606 z m 210.58822,-66.42857 c -1.95626,-2.35714 -4.84255,-4.28572 -6.41398,-4.28572 -1.5938,0 -1.2844,1.89503 0.69969,4.28572 1.95626,2.35714 4.84254,4.28571 6.41397,4.28571 1.5938,0 1.2844,-1.89503 -0.69968,-4.28571 z m -50.93926,-46.15711 c 2.87373,-2.60069 19.51068,-12.34552 19.51068,-14.67103 0,-2.67137 -16.46607,4.25797 -20.20737,9.01426 -4.41683,5.61509 -8.50746,7.52816 -16.09709,7.52816 -12.4576,0 -32.35875,-5.63569 -37.47105,-10.61121 -2.07653,-2.02098 -7.43367,-3.6745 -11.90476,-3.6745 -4.47109,0 -8.77775,-1.60714 -9.57035,-3.57143 -0.86091,-2.13354 -1.53192,-1.55839 -1.66667,1.42857 -0.1658,3.67504 1.99171,5 8.14178,5 4.60205,0 10.06633,1.66746 12.14286,3.70546 10.27784,10.08713 48.15436,13.9673 57.12197,5.85172 z m 18.93926,-55.84289 c 4.73646,-4.73647 4.29616,-15.15171 -0.82004,-19.39778 -2.50804,-2.08148 -7.30422,-2.75912 -11.7071,-1.65407 -6.43593,1.61531 -7.19296,2.92994 -5.5217,9.58878 3.50007,13.94537 10.87966,18.63225 18.04884,11.46307 z m -75.99912,-6.68654 c 6.55652,-14.38998 -5.64772,-30.14294 -16.42385,-21.19955 -5.01699,4.16373 -5.4802,20.26864 -0.71989,25.02895 5.66536,5.66536 13.62804,3.88673 17.14374,-3.8294 z"
       id="path4173"
       inkscape:connector-curvature="0"
       sodipodi:nodetypes="sssssssscssssssssssssssssssssssssssssssssssssssss" />
    <path
       style="fill:#ffff00;fill-opacity:0"
       d="m 174.12607,599.07649 c 0.79845,-1.96429 11.99172,-28 24.87393,-57.85714 12.88221,-29.85715 24.03024,-55.77498 24.77341,-57.59519 0.74316,-1.82021 -30.56255,-28.00546 -69.56825,-58.18943 C 115.19947,395.25075 82,369.33188 80.428571,367.83724 c -1.807889,-1.71954 23.636499,-1.96672 69.285719,-0.67308 48.39554,1.37146 72.14285,1.08668 72.14285,-0.86514 0,-1.60027 6.44012,-11.75499 14.31137,-22.56605 16.16374,-22.20069 94.92188,-117.93145 97.1172,-118.04626 0.78572,-0.0411 12.99454,28.33889 27.13072,63.06664 18.92851,46.50082 27.21131,63.68663 31.42857,65.21037 3.14954,1.13797 45.26554,8.95405 93.59111,17.36908 48.32558,8.41503 86.897,16.15348 85.71429,17.19656 -1.18271,1.04308 -37.50754,15.70874 -80.72183,32.59035 -43.21428,16.88161 -79.65008,31.70309 -80.96846,32.93662 -1.31837,1.23353 2.81032,18.24883 9.1748,37.81177 14.43626,44.37345 26.07938,88.83685 26.07938,99.59333 0,7.44183 -0.61926,7.95246 -6.79623,5.60397 -4.66692,-1.77434 -8.47137,-1.41697 -12.14286,1.14063 -4.82946,3.36426 -9.90674,-0.53394 -52.48949,-40.29994 -25.92857,-24.21346 -50.00169,-46.0348 -53.49582,-48.49183 -6.09003,-4.28243 -7.39086,-3.65163 -31.42858,15.24026 -38.34815,30.13883 -68.76506,52.18723 -90.6585,65.71591 -20.66126,12.76729 -26.034,14.75126 -23.57674,8.70606 z m 210.58822,-66.42857 c -1.95626,-2.35714 -4.84255,-4.28572 -6.41398,-4.28572 -1.5938,0 -1.2844,1.89503 0.69969,4.28572 1.95626,2.35714 4.84254,4.28571 6.41397,4.28571 1.5938,0 1.2844,-1.89503 -0.69968,-4.28571 z M 333.77503,486.49081 C 336.64876,483.89012 339,479.85958 339,477.53407 c 0,-2.67137 -2.18036,-1.45632 -5.92166,3.29997 -4.41683,5.61509 -8.50746,7.52816 -16.09709,7.52816 -12.4576,0 -32.35875,-5.63569 -37.47105,-10.61121 -2.07653,-2.02098 -7.43367,-3.6745 -11.90476,-3.6745 -4.47109,0 -8.77775,-1.60714 -9.57035,-3.57143 -0.86091,-2.13354 -1.53192,-1.55839 -1.66667,1.42857 -0.1658,3.67504 1.99171,5 8.14178,5 4.60205,0 10.06633,1.66746 12.14286,3.70546 10.27784,10.08713 48.15436,13.9673 57.12197,5.85172 z m 18.93926,-55.84289 c 4.73646,-4.73647 4.29616,-15.15171 -0.82004,-19.39778 -2.50804,-2.08148 -7.30422,-2.75912 -11.7071,-1.65407 -6.43593,1.61531 -7.19296,2.92994 -5.5217,9.58878 3.50007,13.94537 10.87966,18.63225 18.04884,11.46307 z m -75.99912,-6.68654 c 6.55652,-14.38998 -5.64772,-30.14294 -16.42385,-21.19955 -5.01699,4.16373 -5.4802,20.26864 -0.71989,25.02895 5.66536,5.66536 13.62804,3.88673 17.14374,-3.8294 z"
       id="path4175"
       inkscape:connector-curvature="0" />
    <path
       style="fill:#ffff00;fill-opacity:0"
       d="m 174.12607,599.07649 c 0.79845,-1.96429 11.99172,-28 24.87393,-57.85714 12.88221,-29.85715 24.03024,-55.77498 24.77341,-57.59519 0.74316,-1.82021 -30.56255,-28.00546 -69.56825,-58.18943 C 115.19947,395.25075 82,369.33188 80.428571,367.83724 c -1.807889,-1.71954 23.636499,-1.96672 69.285719,-0.67308 48.39554,1.37146 72.14285,1.08668 72.14285,-0.86514 0,-1.60027 6.44012,-11.75499 14.31137,-22.56605 16.16374,-22.20069 94.92188,-117.93145 97.1172,-118.04626 0.78572,-0.0411 12.99454,28.33889 27.13072,63.06664 18.92851,46.50082 27.21131,63.68663 31.42857,65.21037 3.14954,1.13797 45.26554,8.95405 93.59111,17.36908 48.32558,8.41503 86.897,16.15348 85.71429,17.19656 -1.18271,1.04308 -37.50754,15.70874 -80.72183,32.59035 -43.21428,16.88161 -79.65008,31.70309 -80.96846,32.93662 -1.31837,1.23353 2.81032,18.24883 9.1748,37.81177 14.43626,44.37345 26.07938,88.83685 26.07938,99.59333 0,7.44183 -0.61926,7.95246 -6.79623,5.60397 -4.66692,-1.77434 -8.47137,-1.41697 -12.14286,1.14063 -4.82946,3.36426 -9.90674,-0.53394 -52.48949,-40.29994 -25.92857,-24.21346 -50.00169,-46.0348 -53.49582,-48.49183 -6.09003,-4.28243 -7.39086,-3.65163 -31.42858,15.24026 -38.34815,30.13883 -68.76506,52.18723 -90.6585,65.71591 -20.66126,12.76729 -26.034,14.75126 -23.57674,8.70606 z m 210.58822,-66.42857 c -1.95626,-2.35714 -4.84255,-4.28572 -6.41398,-4.28572 -1.5938,0 -1.2844,1.89503 0.69969,4.28572 1.95626,2.35714 4.84254,4.28571 6.41397,4.28571 1.5938,0 1.2844,-1.89503 -0.69968,-4.28571 z M 333.77503,486.49081 C 336.64876,483.89012 339,479.85958 339,477.53407 c 0,-2.67137 -2.18036,-1.45632 -5.92166,3.29997 -4.41683,5.61509 -8.50746,7.52816 -16.09709,7.52816 -12.4576,0 -32.35875,-5.63569 -37.47105,-10.61121 -2.07653,-2.02098 -7.43367,-3.6745 -11.90476,-3.6745 -4.47109,0 -8.77775,-1.60714 -9.57035,-3.57143 -0.86091,-2.13354 -1.53192,-1.55839 -1.66667,1.42857 -0.1658,3.67504 1.99171,5 8.14178,5 4.60205,0 10.06633,1.66746 12.14286,3.70546 10.27784,10.08713 48.15436,13.9673 57.12197,5.85172 z m 18.93926,-55.84289 c 4.73646,-4.73647 4.29616,-15.15171 -0.82004,-19.39778 -2.50804,-2.08148 -7.30422,-2.75912 -11.7071,-1.65407 -6.43593,1.61531 -7.19296,2.92994 -5.5217,9.58878 3.50007,13.94537 10.87966,18.63225 18.04884,11.46307 z m -75.99912,-6.68654 c 6.55652,-14.38998 -5.64772,-30.14294 -16.42385,-21.19955 -5.01699,4.16373 -5.4802,20.26864 -0.71989,25.02895 5.66536,5.66536 13.62804,3.88673 17.14374,-3.8294 z"
       id="path4177"
       inkscape:connector-curvature="0" />
    <path
       style="fill:#ffff00;fill-opacity:0"
       d="m 174.12607,599.07649 c 0.79845,-1.96429 11.99172,-28 24.87393,-57.85714 12.88221,-29.85715 24.03024,-55.77498 24.77341,-57.59519 0.74316,-1.82021 -30.56255,-28.00546 -69.56825,-58.18943 C 115.19947,395.25075 82,369.33188 80.428571,367.83724 c -1.807889,-1.71954 23.636499,-1.96672 69.285719,-0.67308 48.39554,1.37146 72.14285,1.08668 72.14285,-0.86514 0,-1.60027 6.44012,-11.75499 14.31137,-22.56605 16.16374,-22.20069 94.92188,-117.93145 97.1172,-118.04626 0.78572,-0.0411 12.99454,28.33889 27.13072,63.06664 18.92851,46.50082 27.21131,63.68663 31.42857,65.21037 3.14954,1.13797 45.26554,8.95405 93.59111,17.36908 48.32558,8.41503 86.897,16.15348 85.71429,17.19656 -1.18271,1.04308 -37.50754,15.70874 -80.72183,32.59035 -43.21428,16.88161 -79.65008,31.70309 -80.96846,32.93662 -1.31837,1.23353 2.81032,18.24883 9.1748,37.81177 14.43626,44.37345 26.07938,88.83685 26.07938,99.59333 0,7.44183 -0.61926,7.95246 -6.79623,5.60397 -4.66692,-1.77434 -8.47137,-1.41697 -12.14286,1.14063 -4.82946,3.36426 -9.90674,-0.53394 -52.48949,-40.29994 -25.92857,-24.21346 -50.00169,-46.0348 -53.49582,-48.49183 -6.09003,-4.28243 -7.39086,-3.65163 -31.42858,15.24026 -38.34815,30.13883 -68.76506,52.18723 -90.6585,65.71591 -20.66126,12.76729 -26.034,14.75126 -23.57674,8.70606 z m 210.58822,-66.42857 c -1.95626,-2.35714 -4.84255,-4.28572 -6.41398,-4.28572 -1.5938,0 -1.2844,1.89503 0.69969,4.28572 1.95626,2.35714 4.84254,4.28571 6.41397,4.28571 1.5938,0 1.2844,-1.89503 -0.69968,-4.28571 z M 333.77503,486.49081 C 336.64876,483.89012 339,479.85958 339,477.53407 c 0,-2.67137 -2.18036,-1.45632 -5.92166,3.29997 -4.41683,5.61509 -8.50746,7.52816 -16.09709,7.52816 -12.4576,0 -32.35875,-5.63569 -37.47105,-10.61121 -2.07653,-2.02098 -7.43367,-3.6745 -11.90476,-3.6745 -4.47109,0 -8.77775,-1.60714 -9.57035,-3.57143 -0.86091,-2.13354 -1.53192,-1.55839 -1.66667,1.42857 -0.1658,3.67504 1.99171,5 8.14178,5 4.60205,0 10.06633,1.66746 12.14286,3.70546 10.27784,10.08713 48.15436,13.9673 57.12197,5.85172 z m 18.93926,-55.84289 c 4.73646,-4.73647 4.29616,-15.15171 -0.82004,-19.39778 -2.50804,-2.08148 -7.30422,-2.75912 -11.7071,-1.65407 -6.43593,1.61531 -7.19296,2.92994 -5.5217,9.58878 3.50007,13.94537 10.87966,18.63225 18.04884,11.46307 z m -75.99912,-6.68654 c 6.55652,-14.38998 -5.64772,-30.14294 -16.42385,-21.19955 -5.01699,4.16373 -5.4802,20.26864 -0.71989,25.02895 5.66536,5.66536 13.62804,3.88673 17.14374,-3.8294 z"
       id="path4179"
       inkscape:connector-curvature="0" />
    <path
       style="fill:#ffff00;fill-opacity:0"
       d="m 174.12607,599.07649 c 0.79845,-1.96429 11.99172,-28 24.87393,-57.85714 12.88221,-29.85715 24.03024,-55.77498 24.77341,-57.59519 0.74316,-1.82021 -30.56255,-28.00546 -69.56825,-58.18943 C 115.19947,395.25075 82,369.33188 80.428571,367.83724 c -1.807889,-1.71954 23.636499,-1.96672 69.285719,-0.67308 48.39554,1.37146 72.14285,1.08668 72.14285,-0.86514 0,-1.60027 6.44012,-11.75499 14.31137,-22.56605 16.16374,-22.20069 94.92188,-117.93145 97.1172,-118.04626 0.78572,-0.0411 12.99454,28.33889 27.13072,63.06664 18.92851,46.50082 27.21131,63.68663 31.42857,65.21037 3.14954,1.13797 45.26554,8.95405 93.59111,17.36908 48.32558,8.41503 86.897,16.15348 85.71429,17.19656 -1.18271,1.04308 -37.50754,15.70874 -80.72183,32.59035 -43.21428,16.88161 -79.65008,31.70309 -80.96846,32.93662 -1.31837,1.23353 2.81032,18.24883 9.1748,37.81177 14.43626,44.37345 26.07938,88.83685 26.07938,99.59333 0,7.44183 -0.61926,7.95246 -6.79623,5.60397 -4.66692,-1.77434 -8.47137,-1.41697 -12.14286,1.14063 -4.82946,3.36426 -9.90674,-0.53394 -52.48949,-40.29994 -25.92857,-24.21346 -50.00169,-46.0348 -53.49582,-48.49183 -6.09003,-4.28243 -7.39086,-3.65163 -31.42858,15.24026 -38.34815,30.13883 -68.76506,52.18723 -90.6585,65.71591 -20.66126,12.76729 -26.034,14.75126 -23.57674,8.70606 z m 210.58822,-66.42857 c -1.95626,-2.35714 -4.84255,-4.28572 -6.41398,-4.28572 -1.5938,0 -1.2844,1.89503 0.69969,4.28572 1.95626,2.35714 4.84254,4.28571 6.41397,4.28571 1.5938,0 1.2844,-1.89503 -0.69968,-4.28571 z M 333.77503,486.49081 C 336.64876,483.89012 339,479.85958 339,477.53407 c 0,-2.67137 -2.18036,-1.45632 -5.92166,3.29997 -4.41683,5.61509 -8.50746,7.52816 -16.09709,7.52816 -12.4576,0 -32.35875,-5.63569 -37.47105,-10.61121 -2.07653,-2.02098 -7.43367,-3.6745 -11.90476,-3.6745 -4.47109,0 -8.77775,-1.60714 -9.57035,-3.57143 -0.86091,-2.13354 -1.53192,-1.55839 -1.66667,1.42857 -0.1658,3.67504 1.99171,5 8.14178,5 4.60205,0 10.06633,1.66746 12.14286,3.70546 10.27784,10.08713 48.15436,13.9673 57.12197,5.85172 z m 18.93926,-55.84289 c 4.73646,-4.73647 4.29616,-15.15171 -0.82004,-19.39778 -2.50804,-2.08148 -7.30422,-2.75912 -11.7071,-1.65407 -6.43593,1.61531 -7.19296,2.92994 -5.5217,9.58878 3.50007,13.94537 10.87966,18.63225 18.04884,11.46307 z m -75.99912,-6.68654 c 6.55652,-14.38998 -5.64772,-30.14294 -16.42385,-21.19955 -5.01699,4.16373 -5.4802,20.26864 -0.71989,25.02895 5.66536,5.66536 13.62804,3.88673 17.14374,-3.8294 z"
       id="path4181"
       inkscape:connector-curvature="0" />
    <path
       style="fill:#ffff00;fill-opacity:0"
       d="m 174.12607,599.07649 c 0.79845,-1.96429 11.99172,-28 24.87393,-57.85714 12.88221,-29.85715 24.03024,-55.77498 24.77341,-57.59519 0.74316,-1.82021 -30.56255,-28.00546 -69.56825,-58.18943 C 115.19947,395.25075 82,369.33188 80.428571,367.83724 c -1.807889,-1.71954 23.636499,-1.96672 69.285719,-0.67308 48.39554,1.37146 72.14285,1.08668 72.14285,-0.86514 0,-1.60027 6.44012,-11.75499 14.31137,-22.56605 16.16374,-22.20069 94.92188,-117.93145 97.1172,-118.04626 0.78572,-0.0411 12.99454,28.33889 27.13072,63.06664 18.92851,46.50082 27.21131,63.68663 31.42857,65.21037 3.14954,1.13797 45.26554,8.95405 93.59111,17.36908 48.32558,8.41503 86.897,16.15348 85.71429,17.19656 -1.18271,1.04308 -37.50754,15.70874 -80.72183,32.59035 -43.21428,16.88161 -79.65008,31.70309 -80.96846,32.93662 -1.31837,1.23353 2.81032,18.24883 9.1748,37.81177 14.43626,44.37345 26.07938,88.83685 26.07938,99.59333 0,7.44183 -0.61926,7.95246 -6.79623,5.60397 -4.66692,-1.77434 -8.47137,-1.41697 -12.14286,1.14063 -4.82946,3.36426 -9.90674,-0.53394 -52.48949,-40.29994 -25.92857,-24.21346 -50.00169,-46.0348 -53.49582,-48.49183 -6.09003,-4.28243 -7.39086,-3.65163 -31.42858,15.24026 -38.34815,30.13883 -68.76506,52.18723 -90.6585,65.71591 -20.66126,12.76729 -26.034,14.75126 -23.57674,8.70606 z m 210.58822,-66.42857 c -1.95626,-2.35714 -4.84255,-4.28572 -6.41398,-4.28572 -1.5938,0 -1.2844,1.89503 0.69969,4.28572 1.95626,2.35714 4.84254,4.28571 6.41397,4.28571 1.5938,0 1.2844,-1.89503 -0.69968,-4.28571 z M 333.77503,486.49081 C 336.64876,483.89012 339,479.85958 339,477.53407 c 0,-2.67137 -2.18036,-1.45632 -5.92166,3.29997 -4.41683,5.61509 -8.50746,7.52816 -16.09709,7.52816 -12.4576,0 -32.35875,-5.63569 -37.47105,-10.61121 -2.07653,-2.02098 -7.43367,-3.6745 -11.90476,-3.6745 -4.47109,0 -8.77775,-1.60714 -9.57035,-3.57143 -0.86091,-2.13354 -1.53192,-1.55839 -1.66667,1.42857 -0.1658,3.67504 1.99171,5 8.14178,5 4.60205,0 10.06633,1.66746 12.14286,3.70546 10.27784,10.08713 48.15436,13.9673 57.12197,5.85172 z m 18.93926,-55.84289 c 4.73646,-4.73647 4.29616,-15.15171 -0.82004,-19.39778 -2.50804,-2.08148 -7.30422,-2.75912 -11.7071,-1.65407 -6.43593,1.61531 -7.19296,2.92994 -5.5217,9.58878 3.50007,13.94537 10.87966,18.63225 18.04884,11.46307 z m -75.99912,-6.68654 c 6.55652,-14.38998 -5.64772,-30.14294 -16.42385,-21.19955 -5.01699,4.16373 -5.4802,20.26864 -0.71989,25.02895 5.66536,5.66536 13.62804,3.88673 17.14374,-3.8294 z"
       id="path4183"
       inkscape:connector-curvature="0" />
    <path
       style="fill:#ffff00;fill-opacity:0"
       d="m 174.12607,599.07649 c 0.79845,-1.96429 11.99172,-28 24.87393,-57.85714 12.88221,-29.85715 24.03024,-55.77498 24.77341,-57.59519 0.74316,-1.82021 -30.56255,-28.00546 -69.56825,-58.18943 C 115.19947,395.25075 82,369.33188 80.428571,367.83724 c -1.807889,-1.71954 23.636499,-1.96672 69.285719,-0.67308 48.39554,1.37146 72.14285,1.08668 72.14285,-0.86514 0,-1.60027 6.44012,-11.75499 14.31137,-22.56605 16.16374,-22.20069 94.92188,-117.93145 97.1172,-118.04626 0.78572,-0.0411 12.99454,28.33889 27.13072,63.06664 18.92851,46.50082 27.21131,63.68663 31.42857,65.21037 3.14954,1.13797 45.26554,8.95405 93.59111,17.36908 48.32558,8.41503 86.897,16.15348 85.71429,17.19656 -1.18271,1.04308 -37.50754,15.70874 -80.72183,32.59035 -43.21428,16.88161 -79.65008,31.70309 -80.96846,32.93662 -1.31837,1.23353 2.81032,18.24883 9.1748,37.81177 14.43626,44.37345 26.07938,88.83685 26.07938,99.59333 0,7.44183 -0.61926,7.95246 -6.79623,5.60397 -4.66692,-1.77434 -8.47137,-1.41697 -12.14286,1.14063 -4.82946,3.36426 -9.90674,-0.53394 -52.48949,-40.29994 -25.92857,-24.21346 -50.00169,-46.0348 -53.49582,-48.49183 -6.09003,-4.28243 -7.39086,-3.65163 -31.42858,15.24026 -38.34815,30.13883 -68.76506,52.18723 -90.6585,65.71591 -20.66126,12.76729 -26.034,14.75126 -23.57674,8.70606 z m 210.58822,-66.42857 c -1.95626,-2.35714 -4.84255,-4.28572 -6.41398,-4.28572 -1.5938,0 -1.2844,1.89503 0.69969,4.28572 1.95626,2.35714 4.84254,4.28571 6.41397,4.28571 1.5938,0 1.2844,-1.89503 -0.69968,-4.28571 z M 333.77503,486.49081 C 336.64876,483.89012 339,479.85958 339,477.53407 c 0,-2.67137 -2.18036,-1.45632 -5.92166,3.29997 -4.41683,5.61509 -8.50746,7.52816 -16.09709,7.52816 -12.4576,0 -32.35875,-5.63569 -37.47105,-10.61121 -2.07653,-2.02098 -7.43367,-3.6745 -11.90476,-3.6745 -4.47109,0 -8.77775,-1.60714 -9.57035,-3.57143 -0.86091,-2.13354 -1.53192,-1.55839 -1.66667,1.42857 -0.1658,3.67504 1.99171,5 8.14178,5 4.60205,0 10.06633,1.66746 12.14286,3.70546 10.27784,10.08713 48.15436,13.9673 57.12197,5.85172 z m 18.93926,-55.84289 c 4.73646,-4.73647 4.29616,-15.15171 -0.82004,-19.39778 -2.50804,-2.08148 -7.30422,-2.75912 -11.7071,-1.65407 -6.43593,1.61531 -7.19296,2.92994 -5.5217,9.58878 3.50007,13.94537 10.87966,18.63225 18.04884,11.46307 z m -75.99912,-6.68654 c 6.55652,-14.38998 -5.64772,-30.14294 -16.42385,-21.19955 -5.01699,4.16373 -5.4802,20.26864 -0.71989,25.02895 5.66536,5.66536 13.62804,3.88673 17.14374,-3.8294 z"
       id="path4185"
       inkscape:connector-curvature="0" />
    <path
       style="fill:#ffff00;fill-opacity:0"
       d="m 174.12607,599.07649 c 0.79845,-1.96429 11.99172,-28 24.87393,-57.85714 12.88221,-29.85715 24.03024,-55.77498 24.77341,-57.59519 0.74316,-1.82021 -30.56255,-28.00546 -69.56825,-58.18943 C 115.19947,395.25075 82,369.33188 80.428571,367.83724 c -1.807889,-1.71954 23.636499,-1.96672 69.285719,-0.67308 48.39554,1.37146 72.14285,1.08668 72.14285,-0.86514 0,-1.60027 6.44012,-11.75499 14.31137,-22.56605 16.16374,-22.20069 94.92188,-117.93145 97.1172,-118.04626 0.78572,-0.0411 12.99454,28.33889 27.13072,63.06664 18.92851,46.50082 27.21131,63.68663 31.42857,65.21037 3.14954,1.13797 45.26554,8.95405 93.59111,17.36908 48.32558,8.41503 86.897,16.15348 85.71429,17.19656 -1.18271,1.04308 -37.50754,15.70874 -80.72183,32.59035 -43.21428,16.88161 -79.65008,31.70309 -80.96846,32.93662 -1.31837,1.23353 2.81032,18.24883 9.1748,37.81177 14.43626,44.37345 26.07938,88.83685 26.07938,99.59333 0,7.44183 -0.61926,7.95246 -6.79623,5.60397 -4.66692,-1.77434 -8.47137,-1.41697 -12.14286,1.14063 -4.82946,3.36426 -9.90674,-0.53394 -52.48949,-40.29994 -25.92857,-24.21346 -50.00169,-46.0348 -53.49582,-48.49183 -6.09003,-4.28243 -7.39086,-3.65163 -31.42858,15.24026 -38.34815,30.13883 -68.76506,52.18723 -90.6585,65.71591 -20.66126,12.76729 -26.034,14.75126 -23.57674,8.70606 z m 210.58822,-66.42857 c -1.95626,-2.35714 -4.84255,-4.28572 -6.41398,-4.28572 -1.5938,0 -1.2844,1.89503 0.69969,4.28572 1.95626,2.35714 4.84254,4.28571 6.41397,4.28571 1.5938,0 1.2844,-1.89503 -0.69968,-4.28571 z M 333.77503,486.49081 C 336.64876,483.89012 339,479.85958 339,477.53407 c 0,-2.67137 -2.18036,-1.45632 -5.92166,3.29997 -4.41683,5.61509 -8.50746,7.52816 -16.09709,7.52816 -12.4576,0 -32.35875,-5.63569 -37.47105,-10.61121 -2.07653,-2.02098 -7.43367,-3.6745 -11.90476,-3.6745 -4.47109,0 -8.77775,-1.60714 -9.57035,-3.57143 -0.86091,-2.13354 -1.53192,-1.55839 -1.66667,1.42857 -0.1658,3.67504 1.99171,5 8.14178,5 4.60205,0 10.06633,1.66746 12.14286,3.70546 10.27784,10.08713 48.15436,13.9673 57.12197,5.85172 z m 18.93926,-55.84289 c 4.73646,-4.73647 4.29616,-15.15171 -0.82004,-19.39778 -2.50804,-2.08148 -7.30422,-2.75912 -11.7071,-1.65407 -6.43593,1.61531 -7.19296,2.92994 -5.5217,9.58878 3.50007,13.94537 10.87966,18.63225 18.04884,11.46307 z m -75.99912,-6.68654 c 6.55652,-14.38998 -5.64772,-30.14294 -16.42385,-21.19955 -5.01699,4.16373 -5.4802,20.26864 -0.71989,25.02895 5.66536,5.66536 13.62804,3.88673 17.14374,-3.8294 z"
       id="path4187"
       inkscape:connector-curvature="0" />
    <path
       style="fill:none;fill-rule:evenodd;stroke:#000000;stroke-width:1px;stroke-linecap:butt;stroke-linejoin:miter;stroke-opacity:1"
       d="m 420,598.07649 c 0.1419,6.65751 11.55851,5.97416 14.28571,11.42857 0.42592,0.85184 -0.67343,2.18371 0,2.85714 0.67344,0.67344 2.00531,-0.42591 2.85715,0 9.47595,9.47595 -2.69374,-1.34687 5.71428,2.85715 3.40179,1.70089 3.98701,5.71428 2.85715,5.71428 -0.95239,0 0,-3.80952 0,-2.85714 0,7.06116 1.34687,7.06116 -2.85715,2.85714"
       id="path4189"
       inkscape:connector-curvature="0" />
    <path
       style="fill:none;fill-rule:evenodd;stroke:#000000;stroke-width:1px;stroke-linecap:butt;stroke-linejoin:miter;stroke-opacity:1"
       d="m 1277.1429,812.3622 0,8.57143"
       id="path4193"
       inkscape:connector-curvature="0" />
    <path
       style="fill:#ffff00;fill-opacity:0"
       id="path4198"
       sodipodi:type="arc"
       sodipodi:cx="248.57143"
       sodipodi:cy="386.64792"
       sodipodi:rx="11.428572"
       sodipodi:ry="8.5714283"
       sodipodi:start="0"
       sodipodi:end="0.43617234"
       d="m 260,386.64792 a 11.428572,8.5714283 0 0 1 -1.07,3.6212 l -10.35857,-3.6212 z" />
    <path
       style="fill:#ffff00;fill-opacity:0"
       id="path4200"
       sodipodi:type="arc"
       sodipodi:cx="-255.71428"
       sodipodi:cy="245.21935"
       sodipodi:rx="87.14286"
       sodipodi:ry="18.571428"
       sodipodi:start="0"
       sodipodi:end="5.1696478"
       d="m -168.57142,245.21935 a 87.14286,18.571428 0 0 1 -63.19578,17.85644 87.14286,18.571428 0 0 1 -97.9285,-8.04245 87.14286,18.571428 0 0 1 9.37377,-22.27661 87.14286,18.571428 0 0 1 103.08037,-4.2009 l -38.47272,16.66352 z" />
    <path
       sodipodi:type="star"
       style="fill:#ffff00;fill-opacity:0"
       id="path4222"
       sodipodi:sides="5"
       sodipodi:cx="185.71429"
       sodipodi:cy="289.50507"
       sodipodi:r1="95.831482"
       sodipodi:r2="5.708097"
       sodipodi:arg1="1.1071487"
       sodipodi:arg2="1.7354672"
       inkscape:flatsided="false"
       inkscape:rounded="0"
       inkscape:randomized="0"
       d="m 228.57144,375.21935 -43.79286,-80.0834 -67.33983,61.61585 62.63111,-66.39661 -79.40931,-45.00364 82.50101,39.04804 18.26217,-89.42963 -11.64268,90.52963 90.69596,-10.26692 -89.69658,16.90235 z"
       inkscape:transform-center-x="-4.8544827"
       inkscape:transform-center-y="-4.4104123" />
    <path
       sodipodi:type="star"
       style="fill:#ffff00;fill-opacity:0"
       id="path4224"
       sodipodi:sides="5"
       sodipodi:cx="48.57143"
       sodipodi:cy="278.07648"
       sodipodi:r1="329.7742"
       sodipodi:r2="19.642637"
       sodipodi:arg1="0.66256292"
       sodipodi:arg2="1.2908815"
       inkscape:flatsided="false"
       inkscape:rounded="0"
       inkscape:randomized="0"
       d="M 308.57143,480.93362 53.998176,296.9546 -64.012759,588.03748 32.294223,289.07128 -281.00943,266.78577 33.084817,265.99351 -42.536554,-38.862568 55.277384,259.61399 321.84446,93.488084 68.202551,278.749 Z"
       inkscape:transform-center-x="28.153915"
       inkscape:transform-center-y="-3.4890214" />
    <path
       sodipodi:type="star"
       style="fill:#ffff00;fill-rule:evenodd;stroke:#000000;stroke-width:1px;stroke-linecap:butt;stroke-linejoin:miter;stroke-opacity:1"
       id="path4230"
       sodipodi:sides="5"
       sodipodi:cx="365.71429"
       sodipodi:cy="466.64791"
       sodipodi:r1="384.00681"
       sodipodi:r2="130.64104"
       sodipodi:arg1="0.93324753"
       sodipodi:arg2="1.5615661"
       inkscape:flatsided="false"
       inkscape:rounded="0"
       inkscape:randomized="0"
       d="M 594.28572,775.21935 366.92012,597.28339 142.87788,779.38608 241.8452,508.16331 -0.57761318,351.3593 287.95315,361.67037 362.16986,82.657471 441.52436,360.25283 729.81562,344.61739 490.32863,505.86969 Z"
       inkscape:transform-center-x="1.0952907"
       inkscape:transform-center-y="-35.626141" />
    <path
       style="fill:#000000;fill-opacity:0"
       id="path4234"
       sodipodi:type="arc"
       sodipodi:cx="255.71428"
       sodipodi:cy="410.93362"
       sodipodi:rx="30"
       sodipodi:ry="44.285713"
       sodipodi:start="0"
       sodipodi:end="0.1661947"
       d="m 285.71428,410.93362 a 30,44.285713 0 0 1 -0.41336,7.32622 l -29.58664,-7.32622 z" />
    <path
       style="fill:#000000;fill-opacity:0"
       id="path4236"
       sodipodi:type="arc"
       sodipodi:cx="401.42856"
       sodipodi:cy="418.07648"
       sodipodi:rx="7.1428571"
       sodipodi:ry="2.8571429"
       sodipodi:start="0"
       sodipodi:end="0.16619461"
       d="m 408.57142,418.07648 a 7.1428571,2.8571429 0 0 1 -0.0984,0.47266 l -7.04444,-0.47266 z" />
    <path
       style="fill:#000000;fill-opacity:0"
       id="path4238"
       sodipodi:type="arc"
       sodipodi:cx="307.14285"
       sodipodi:cy="432.36221"
       sodipodi:rx="7.1428571"
       sodipodi:ry="8.5714283"
       sodipodi:start="0"
       sodipodi:end="0.70083839"
       d="m 314.28571,432.36221 a 7.1428571,8.5714283 0 0 1 -1.68356,5.52736 l -5.4593,-5.52736 z" />
    <path
       style="fill:#000000;fill-opacity:0"
       id="path4240"
       sodipodi:type="arc"
       sodipodi:cx="411.42856"
       sodipodi:cy="458.07648"
       sodipodi:rx="28.571428"
       sodipodi:ry="22.857143"
       sodipodi:start="0"
       sodipodi:end="0.70083871"
       d="m 439.99999,458.07648 a 28.571428,22.857143 0 0 1 -6.73424,14.73963 l -21.83719,-14.73963 z" />
    <path
       style="fill:#241c1c;fill-opacity:0;stroke:#28170b"
       id="path4246"
       sodipodi:type="arc"
       sodipodi:cx="817.14288"
       sodipodi:cy="426.64792"
       sodipodi:rx="11.428572"
       sodipodi:ry="5.7142859"
       sodipodi:start="0"
       sodipodi:end="0.70083871"
       d="m 828.57146,426.64792 a 11.428572,5.7142859 0 0 1 -2.6937,3.68491 l -8.73488,-3.68491 z" />
    <path
       sodipodi:type="spiral"
       style="fill:none;fill-rule:evenodd;stroke:#000000;stroke-width:1px;stroke-linecap:butt;stroke-linejoin:miter;stroke-opacity:1"
       id="path4248"
       sodipodi:cx="294.28571"
       sodipodi:cy="446.64792"
       sodipodi:expansion="1"
       sodipodi:revolution="3"
       sodipodi:radius="65.152878"
       sodipodi:argument="-18.188513"
       sodipodi:t0="0"
       d="m 294.28571,446.64792 c 2.57854,2.00553 -1.43126,4.46529 -3.33334,4.28571 -5.1545,-0.48664 -6.76374,-6.80984 -5.23809,-10.95238 2.72903,-7.41002 11.97305,-9.39364 18.57142,-6.19047 9.68338,4.70077 12.09063,17.20237 7.14286,26.19047 -6.5946,11.97972 -22.45466,14.81554 -33.80952,8.09524 -14.28893,-8.45682 -17.55477,-27.71776 -9.04762,-41.42857 10.3033,-16.60563 32.98692,-20.30227 49.04762,-10 18.92697,12.14086 23.05494,38.25986 10.95238,56.66666 -13.97289,21.25139 -43.53532,25.81109 -64.28571,11.90477 -23.57791,-15.80125 -28.56965,-48.81256 -12.85715,-71.90476 17.62705,-25.90596 54.09109,-31.32996 79.52381,-13.80953 28.23513,19.45101 34.0916,59.37059 14.76191,87.14285" />
    <path
       sodipodi:type="spiral"
       style="fill:none;fill-rule:evenodd;stroke:#000000;stroke-width:1px;stroke-linecap:butt;stroke-linejoin:miter;stroke-opacity:1"
       id="path4250"
       sodipodi:cx="420"
       sodipodi:cy="438.07648"
       sodipodi:expansion="1"
       sodipodi:revolution="3"
       sodipodi:radius="78.817795"
       sodipodi:argument="-18.038523"
       sodipodi:t0="0"
       d="m 420,438.07648 c 2.7218,2.86505 -2.51919,5.08244 -4.7619,4.52381 -6.07761,-1.51387 -6.85948,-9.3683 -4.28572,-14.04762 4.60384,-8.3702 16.01969,-9.07189 23.33333,-4.04763 10.73306,7.37331 11.3526,22.76231 3.80953,32.61905 -10.05371,13.13749 -29.53741,13.66257 -41.90476,3.57144 -15.56303,-12.69864 -15.9877,-36.32806 -3.33335,-51.19047 15.32612,-18.00038 43.12745,-18.32163 60.47619,-3.09526 20.44489,17.94375 20.66108,49.9323 2.85717,69.7619 -20.55531,22.89406 -56.74079,23.0042 -79.04762,2.61908 -25.34643,-23.16288 -25.3499,-63.55184 -2.38098,-88.33333 25.76765,-27.80109 70.36475,-27.69748 97.61904,-2.1429 30.25744,28.37043 30.04645,77.17907 1.9048,106.90476" />
    <path
       style="fill:none;fill-rule:evenodd;stroke:#000000;stroke-width:1px;stroke-linecap:butt;stroke-linejoin:miter;stroke-opacity:1"
       d="m 265.71429,538.07649 c 6.6575,0.1419 5.97416,11.55851 11.42857,14.28571 1.70367,0.85184 3.90727,-0.60233 5.71428,0 20.69548,6.8985 -4.50459,-0.82372 8.57143,5.71429 0.85184,0.42592 2.18371,-0.67343 2.85714,0 0.67344,0.67344 -0.67343,2.18371 0,2.85714 1.90099,1.90099 3.8133,-1.90099 5.71429,0 0.67344,0.67344 -0.67344,2.18371 0,2.85715 1.34687,1.34687 4.36742,-1.34687 5.71429,0 0.67343,0.67343 -0.67344,2.1837 0,2.85714 0.67343,0.67343 2.0053,-0.42592 2.85714,0 1.20468,0.60234 1.65246,2.2548 2.85714,2.85714 0.85184,0.42592 2.00531,-0.42592 2.85714,0 1.20468,0.60234 1.65247,2.25481 2.85715,2.85714 1.13283,0.56642 7.98732,-0.5841 8.57143,0 0.67343,0.67344 -0.67344,2.18371 0,2.85715 0.67343,0.67343 1.90476,0 2.85714,0 0.95238,0 1.90476,0 2.85714,0 13.33333,0 26.66667,0 40,0 7.61905,0 15.2381,0 22.85714,0 0.95239,0 1.90477,0 2.85715,0 0.95238,0 2.1837,0.67343 2.85714,0 0.67344,-0.67344 -0.42592,-2.00531 0,-2.85715 5.94537,-11.89074 -0.19724,3.05439 5.71429,-2.85714 0.67343,-0.67343 -0.42592,-2.00531 0,-2.85714 0.60233,-1.20468 2.2548,-1.65247 2.85714,-2.85714 0.85183,-1.70367 -1.34687,-4.36742 0,-5.71429 0.67343,-0.67343 2.00531,0.42592 2.85714,0 1.20468,-0.60234 1.65247,-2.2548 2.85714,-2.85714 1.13284,-0.56642 7.98733,0.5841 8.57143,0 0.67344,-0.67344 -0.67343,-2.18371 0,-2.85715 0.67344,-0.67343 2.00531,0.42592 2.85715,0 1.20467,-0.60233 1.65246,-2.2548 2.85714,-2.85714 0.85183,-0.42592 2.00531,0.42592 2.85714,0 11.89075,-5.94537 -3.05439,0.19725 2.85714,-5.71428 0.67344,-0.67344 2.18371,0.67343 2.85715,0 0.67343,-0.67344 -0.67344,-2.18371 0,-2.85715 0.67343,-0.67343 2.0053,0.42592 2.85714,0 1.20468,-0.60234 1.65247,-2.2548 2.85714,-2.85714 1.70367,-0.85183 4.36742,1.34687 5.71429,0 0.67343,-0.67343 -0.67344,-2.18371 0,-2.85714 0.67343,-0.67344 2.18371,0.67343 2.85714,0 0.67344,-0.67344 -0.30117,-1.95364 0,-2.85715 2.18871,-6.56612 1.21697,-5.71428 5.71429,-5.71428"
       id="path4256"
       inkscape:connector-curvature="0" />
    <path
       style="fill:none;fill-rule:evenodd;stroke:#000000;stroke-width:1px;stroke-linecap:butt;stroke-linejoin:miter;stroke-opacity:1"
       d="m 442.85714,543.79078 c 0.95238,3.80952 1.90476,7.61904 2.85715,11.42857 0.95238,0 2.1837,-0.67344 2.85714,0 0.67343,0.67343 -0.67344,2.18371 0,2.85714 0.67343,0.67344 2.18371,-0.67343 2.85714,0 0.67344,0.67344 -0.67343,2.18371 0,2.85714 0.67344,0.67344 2.18371,-0.67343 2.85714,0 0.67344,0.67344 -0.67343,2.18371 0,2.85715 0.67344,0.67343 2.18371,-0.67344 2.85715,0 0.67343,0.67343 -0.67344,2.1837 0,2.85714 0.67343,0.67343 2.1837,-0.67344 2.85714,0 0.67344,0.67343 0,1.90476 0,2.85714 0,0.95238 0,3.80953 0,2.85714 0,-1.90476 0,-7.61904 0,-5.71428 0,10.47619 0,20.95238 0,31.42857 0,0.95238 0.67344,2.18371 0,2.85714 -0.67344,0.67344 -2.18371,-0.67343 -2.85714,0 -0.67344,0.67344 0.67343,2.18371 0,2.85715 -1.34687,1.34687 -4.01062,-0.85184 -5.71429,0 -1.20468,0.60233 -1.65246,2.2548 -2.85714,2.85714 -0.75807,0.37903 -19.45711,0.18096 -20,0 -1.27775,-0.42592 -2.25481,-1.65247 -2.85714,-2.85714 -0.42592,-0.85184 0,-1.90477 0,-2.85715 0,-0.95238 0,-1.90476 0,-2.85714 0,-4.7619 0,-9.52381 0,-14.28571 0,-0.95238 0,-1.90477 0,-2.85715 0,-0.95238 0.67343,-2.1837 0,-2.85714 -1.34687,-1.34687 -4.36742,1.34687 -5.71429,0 -0.67344,-0.67343 0.67344,-2.18371 0,-2.85714 -0.67344,-0.67344 -2.18371,0.67343 -2.85714,0 -1.34687,-1.34687 0.85183,-4.01062 0,-5.71429 -0.60234,-1.20468 -2.25481,-1.65246 -2.85715,-2.85714 -0.42591,-0.85184 0,-1.90476 0,-2.85714 0,-0.95238 -0.95238,-2.85715 0,-2.85715 0.95239,0 0,3.80953 0,2.85715 0,-1.90477 0.85184,-4.01062 0,-5.71429 -0.42591,-0.85183 -2.85714,0.95238 -2.85714,0 0,-0.95238 1.90476,0 2.85714,0"
       id="path4258"
       inkscape:connector-curvature="0" />
    <path
       style="fill:none;fill-rule:evenodd;stroke:#000000;stroke-width:1px;stroke-linecap:butt;stroke-linejoin:miter;stroke-opacity:1"
       d="m 431.42857,558.07649 c 1.90476,3.80952 3.15878,8.02123 5.71429,11.42857 0.57143,0.76191 2.1837,-0.67343 2.85714,0 1.34687,1.34687 -0.85184,4.01062 0,5.71429 0.60234,1.20467 2.2548,1.65246 2.85714,2.85714 0.42592,0.85184 -0.67343,2.18371 0,2.85714 0.67344,0.67344 2.18371,-0.67343 2.85715,0 1.42857,1.42857 -1.42858,7.14286 0,8.57143 0.67343,0.67344 2.1837,-0.67343 2.85714,0 0.67343,0.67344 0,1.90476 0,2.85714 0,0.95239 0,1.90477 0,2.85715"
       id="path4260"
       inkscape:connector-curvature="0" />
  </g>
</svg>
